<svg width="35" height="30" viewBox="0 0 35 30" fill="none" xmlns="http://www.w3.org/2000/svg">
<path d="M33.5878 12.9117L33.5762 12.9067L2.432 0.13175C2.17004 0.0233199 1.88499 -0.0192051 1.60235 0.0079791C1.31971 0.0351633 1.04829 0.131209 0.812368 0.287524C0.563111 0.449045 0.35837 0.669316 0.216564 0.928518C0.0747591 1.18772 0.000339163 1.47772 3.98171e-07 1.77243V9.94264C0.000138904 10.3455 0.14239 10.7357 0.402235 11.046C0.662081 11.3563 1.02324 11.5672 1.42347 11.6424L18.4095 14.7486C18.4763 14.7611 18.5365 14.7962 18.5798 14.848C18.6232 14.8997 18.6469 14.9648 18.6469 15.032C18.6469 15.0992 18.6232 15.1642 18.5798 15.216C18.5365 15.2677 18.4763 15.3029 18.4095 15.3154L1.4242 18.4215C1.02408 18.4965 0.662942 18.7072 0.402981 19.0172C0.143019 19.3272 0.00051048 19.7171 3.98171e-07 20.1199V28.2915C-0.000193269 28.5729 0.0702649 28.85 0.205052 29.0978C0.33984 29.3457 0.534739 29.5566 0.77226 29.7115C1.05797 29.8993 1.39328 29.9996 1.73631 30C1.97478 29.9998 2.21081 29.9525 2.43054 29.8608L33.574 17.1587L33.5878 17.1522C34.007 16.9741 34.3642 16.6783 34.6152 16.3014C34.8662 15.9246 35 15.4832 35 15.032C35 14.5807 34.8662 14.1394 34.6152 13.7625C34.3642 13.3857 34.007 13.0899 33.5878 12.9117Z" fill="white"/>
</svg>
