<svg width="34" height="34" viewBox="0 0 34 34" fill="none" xmlns="http://www.w3.org/2000/svg">
<path d="M17 21.5C19.636 21.5 21.7729 19.4853 21.7729 17C21.7729 14.5147 19.636 12.5 17 12.5C14.364 12.5 12.2271 14.5147 12.2271 17C12.2271 19.4853 14.364 21.5 17 21.5Z" stroke="#404048" stroke-width="3"/>
<path d="M19.8081 2.228C19.2242 2 18.4828 2 17 2C15.5172 2 14.7758 2 14.1919 2.228C13.8056 2.37877 13.4546 2.59984 13.1589 2.87859C12.8633 3.15733 12.6288 3.48827 12.4689 3.8525C12.3225 4.187 12.2637 4.5785 12.2414 5.147C12.231 5.55789 12.1103 5.9596 11.8905 6.31453C11.6707 6.66947 11.359 6.96604 10.9845 7.1765C10.604 7.37716 10.1757 7.48351 9.73964 7.48561C9.30362 7.48771 8.87417 7.38548 8.49147 7.1885C7.9569 6.9215 7.5703 6.7745 7.18687 6.7265C6.35053 6.62281 5.50473 6.83646 4.83541 7.3205C4.33584 7.685 3.96356 8.2895 3.22216 9.5C2.48077 10.7105 2.10848 11.315 2.02734 11.9075C1.97267 12.2982 2.00017 12.6952 2.10827 13.0758C2.21637 13.4565 2.40296 13.8133 2.65737 14.126C2.89283 14.414 3.22216 14.6555 3.73287 14.9585C4.4854 15.404 4.96905 16.163 4.96905 17C4.96905 17.837 4.4854 18.596 3.73287 19.04C3.22216 19.3445 2.89124 19.586 2.65737 19.874C2.40296 20.1867 2.21637 20.5435 2.10827 20.9242C2.00017 21.3048 1.97267 21.7018 2.02734 22.0925C2.11007 22.6835 2.48077 23.2895 3.22057 24.5C3.96356 25.7105 4.33425 26.315 4.83541 26.6795C5.16703 26.9194 5.54552 27.0953 5.94926 27.1972C6.353 27.2991 6.77409 27.325 7.18846 27.2735C7.5703 27.2255 7.9569 27.0785 8.49147 26.8115C8.87417 26.6145 9.30362 26.5123 9.73964 26.5144C10.1757 26.5165 10.604 26.6228 10.9845 26.8235C11.753 27.2435 12.2096 28.016 12.2414 28.853C12.2637 29.423 12.3209 29.813 12.4689 30.1475C12.6288 30.5117 12.8633 30.8427 13.1589 31.1214C13.4546 31.4002 13.8056 31.6212 14.1919 31.772C14.7758 32 15.5172 32 17 32C18.4828 32 19.2242 32 19.8081 31.772C20.1944 31.6212 20.5454 31.4002 20.8411 31.1214C21.1367 30.8427 21.3712 30.5117 21.5311 30.1475C21.6775 29.813 21.7363 29.423 21.7586 28.853C21.7904 28.016 22.247 27.242 23.0155 26.8235C23.396 26.6228 23.8243 26.5165 24.2604 26.5144C24.6964 26.5123 25.1258 26.6145 25.5085 26.8115C26.0431 27.0785 26.4297 27.2255 26.8115 27.2735C27.2259 27.325 27.647 27.2991 28.0507 27.1972C28.4545 27.0953 28.833 26.9194 29.1646 26.6795C29.6657 26.3165 30.0364 25.7105 30.7778 24.5C31.5192 23.2895 31.8915 22.685 31.9727 22.0925C32.0273 21.7018 31.9998 21.3048 31.8917 20.9242C31.7836 20.5435 31.597 20.1867 31.3426 19.874C31.1072 19.586 30.7778 19.3445 30.2671 19.0415C29.8947 18.8276 29.586 18.5281 29.3698 18.1711C29.1536 17.814 29.037 17.4111 29.0309 17C29.0309 16.163 29.5146 15.404 30.2671 14.96C30.7778 14.6555 31.1088 14.414 31.3426 14.126C31.597 13.8133 31.7836 13.4565 31.8917 13.0758C31.9998 12.6952 32.0273 12.2982 31.9727 11.9075C31.8899 11.3165 31.5192 10.7105 30.7794 9.5C30.0364 8.2895 29.6657 7.685 29.1646 7.3205C28.833 7.08064 28.4545 6.90472 28.0507 6.8028C27.647 6.70088 27.2259 6.67495 26.8115 6.7265C26.4297 6.7745 26.0431 6.9215 25.5069 7.1885C25.1244 7.38522 24.6953 7.48729 24.2596 7.48519C23.8239 7.4831 23.3958 7.37689 23.0155 7.1765C22.641 6.96604 22.3293 6.66947 22.1095 6.31453C21.8897 5.9596 21.769 5.55789 21.7586 5.147C21.7363 4.577 21.6791 4.187 21.5311 3.8525C21.3712 3.48827 21.1367 3.15733 20.8411 2.87859C20.5454 2.59984 20.1944 2.37877 19.8081 2.228Z" stroke="#404048" stroke-width="3"/>
</svg>
