<svg width="100" height="92" viewBox="0 0 100 92" fill="none" xmlns="http://www.w3.org/2000/svg">
  <path
    d="M71.25 0H28.75C21.1291 0.0131479 13.8241 3.03 8.43528 8.38968C3.04647 13.7494 0.0132193 21.0149 0 28.5946V63.4054C0.0132193 70.9851 3.04647 78.2506 8.43528 83.6103C13.8241 88.97 21.1291 91.9868 28.75 92H71.25C78.8709 91.9868 86.1759 88.97 91.5647 83.6103C96.9535 78.2506 99.9868 70.9851 100 63.4054V28.5946C99.9868 21.0149 96.9535 13.7494 91.5647 8.38968C86.1759 3.03 78.8709 0.0131479 71.25 0ZM30 16.6595C31.7835 16.6565 33.5453 17.0474 35.1585 17.8038C36.7717 18.5602 38.1959 19.6633 39.3284 21.0336C40.461 22.4038 41.2736 24.007 41.7076 25.7275C42.1417 27.448 42.1863 29.2428 41.8384 30.9825C41.4904 32.7223 40.7586 34.3635 39.6956 35.7878C38.6326 37.2121 37.2649 38.3839 35.6914 39.2188C34.1178 40.0536 32.3775 40.5307 30.5961 40.6155C28.8147 40.7003 27.0366 40.3907 25.39 39.7092C22.8154 38.6435 20.6921 36.7226 19.3821 34.2741C18.0722 31.8255 17.6566 29.0009 18.2064 26.2817C18.7561 23.5625 20.2371 21.1171 22.3968 19.3625C24.5566 17.6078 27.2613 16.6525 30.05 16.6595H30ZM92.5 49.8789L81.6 41.4746C78.4604 39.2981 74.6509 38.2897 70.8388 38.6261C67.0268 38.9625 63.4553 40.6223 60.75 43.3146L49.1 54.9016C46.6607 57.2491 43.493 58.7043 40.1145 59.0294C36.7361 59.3546 33.3466 58.5305 30.5 56.6919C29.1127 55.7801 27.457 55.3597 25.8 55.4984C24.136 55.6725 22.5827 56.4099 21.4 57.587L9.25 71.7103C7.93751 68.7209 7.33855 65.4699 7.5 62.2119L15.9 52.5146C18.3222 50.08 21.5129 48.5485 24.9362 48.1772C28.3596 47.8059 31.8072 48.6175 34.7 50.4757C36.0831 51.4072 37.7504 51.8277 39.4127 51.6641C41.0749 51.5006 42.6272 50.7635 43.8 49.5805L55.45 38.0432C59.4366 34.0914 64.6999 31.6691 70.3091 31.205C75.9182 30.7408 81.5116 32.2647 86.1 35.507L92.5 40.48V49.8789Z"
    fill="#2443bd" />
</svg>